<svg width="144" height="140" viewBox="0 0 144 140" fill="none" xmlns="http://www.w3.org/2000/svg">
<g filter="url(#filter0_d_251_1618)">
<path d="M98 37.3333C101.314 37.3333 104 40.0195 104 43.3333V81.3333C104 84.647 101.314 87.3333 98 87.3333H77.3848L72.6318 96.0793C72.127 97.0081 70.7929 97.0081 70.2881 96.0793L65.5352 87.3333H46C42.6863 87.3333 40 84.647 40 81.3333V43.3333C40 40.0195 42.6863 37.3333 46 37.3333H98Z" fill="white"/>
<path d="M78.4473 63.1096L74.6543 77.2659H50.1494V77.3333H50L51.6123 71.3333H70.0322L71.6396 65.3333H53.2246L54.8369 59.3333H79.459L78.4473 63.1096ZM94.1807 51.1096L87.1719 77.2659H80.96L87.373 53.3333H56.4492L58.0625 47.3333H95.1924L94.1807 51.1096Z" fill="#0028AA"/>
</g>
<defs>
<filter id="filter0_d_251_1618" x="0" y="-8.13007e-05" width="144" height="140" filterUnits="userSpaceOnUse" color-interpolation-filters="sRGB">
<feFlood flood-opacity="0" result="BackgroundImageFix"/>
<feColorMatrix in="SourceAlpha" type="matrix" values="0 0 0 0 0 0 0 0 0 0 0 0 0 0 0 0 0 0 127 0" result="hardAlpha"/>
<feOffset dy="2.66667"/>
<feGaussianBlur stdDeviation="20"/>
<feComposite in2="hardAlpha" operator="out"/>
<feColorMatrix type="matrix" values="0 0 0 0 0 0 0 0 0 0 0 0 0 0 0 0 0 0 0.05 0"/>
<feBlend mode="normal" in2="BackgroundImageFix" result="effect1_dropShadow_251_1618"/>
<feBlend mode="normal" in="SourceGraphic" in2="effect1_dropShadow_251_1618" result="shape"/>
</filter>
</defs>
</svg>
