<svg width="33" height="28" viewBox="0 0 33 28" fill="none" xmlns="http://www.w3.org/2000/svg">
<path d="M2.22363 11.9462C12.3782 7.42705 25.5191 1.91725 27.333 1.15466C32.0911 -0.841319 33.5511 -0.458797 32.8232 3.96146C32.3004 7.13852 30.7919 17.6571 29.5896 24.2041C28.8762 28.0865 27.2756 28.5467 24.7588 26.867C23.5484 26.0587 17.4394 21.9719 16.1135 21.0123C14.9031 20.1377 13.2339 19.0858 15.3273 17.0138C16.0723 16.2757 20.9557 11.5588 24.7604 7.88722C25.2589 7.40498 24.6327 6.61296 24.0575 6.99957C18.9293 10.4398 11.8191 15.2148 10.9142 15.8368C9.54709 16.776 8.23413 17.2067 5.87728 16.5218C4.09651 16.0044 2.35694 15.3873 1.67986 15.1519C-0.927467 14.2462 -0.30856 13.0733 2.22363 11.9462Z" fill="white"/>
</svg>
