<svg width="199" height="31" viewBox="0 0 199 31" fill="none" xmlns="http://www.w3.org/2000/svg">
<path d="M51.1117 27.0297V6.19182H67.3354V9.76402H55.0709V13.7232H63.1381C64.0907 13.7232 64.9639 13.9018 65.7577 14.259C66.5515 14.6163 67.2362 15.0926 67.8117 15.6879C68.4071 16.2833 68.8636 16.9878 69.1811 17.8015C69.4986 18.5953 69.6574 19.4387 69.6574 20.3318C69.6574 21.2248 69.4986 22.0782 69.1811 22.8919C68.8636 23.7055 68.4071 24.42 67.8117 25.0352C67.2362 25.6504 66.5515 26.1366 65.7577 26.4938C64.9639 26.8511 64.0907 27.0297 63.1381 27.0297H51.1117ZM62.5427 23.5468C63.0587 23.5468 63.5152 23.4575 63.9121 23.2789C64.309 23.1002 64.6464 22.8621 64.9242 22.5644C65.2219 22.2469 65.4402 21.8996 65.5791 21.5225C65.7379 21.1256 65.8173 20.7287 65.8173 20.3318C65.8173 19.9349 65.7379 19.5479 65.5791 19.1708C65.4402 18.7739 65.2219 18.4266 64.9242 18.1289C64.6464 17.8114 64.309 17.5633 63.9121 17.3847C63.5152 17.2061 63.0587 17.1168 62.5427 17.1168H55.0709V23.5468H62.5427ZM71.9554 27.0297V6.19182H90.6201V27.0297H86.6311V9.76402H75.9145V27.0297H71.9554ZM100.739 27.0297V9.76402H93.2072V6.19182H112.259V9.76402H104.728V27.0297H100.739ZM126.419 19.6769H118.619V27.0297H114.66V6.19182H126.419C127.351 6.19182 128.215 6.38035 129.008 6.75742C129.822 7.11464 130.517 7.60086 131.092 8.21607C131.688 8.83128 132.144 9.55565 132.462 10.3892C132.779 11.2028 132.938 12.0562 132.938 12.9492C132.938 13.8423 132.779 14.6956 132.462 15.5093C132.144 16.323 131.688 17.0374 131.092 17.6526C130.517 18.2678 129.822 18.764 129.008 19.1411C128.215 19.4983 127.351 19.6769 126.419 19.6769ZM125.823 16.2238C126.319 16.2238 126.766 16.1344 127.163 15.9558C127.58 15.7574 127.927 15.4994 128.205 15.1819C128.502 14.8643 128.721 14.517 128.86 14.14C129.018 13.7431 129.098 13.3461 129.098 12.9492C129.098 12.5523 129.018 12.1554 128.86 11.7585C128.721 11.3616 128.502 11.0143 128.205 10.7166C127.927 10.3991 127.58 10.151 127.163 9.9724C126.766 9.77395 126.319 9.67472 125.823 9.67472H118.619V16.2238H125.823ZM135.271 27.0297V6.19182H151.555V9.76402H139.23V14.9139H150.959V18.3075H139.23V23.4575H151.555V27.0297H135.271ZM154.545 27.0297V6.19182H158.504V20.9867L169.816 6.19182H173.805V27.0297H169.816V12.2348L158.504 27.0297H154.545ZM170.441 1.57773L168.566 6.12032e-06C168.05 0.476299 167.415 0.873211 166.661 1.19074C165.907 1.50827 165.083 1.66703 164.19 1.66703C163.277 1.66703 162.444 1.50827 161.689 1.19074C160.935 0.873211 160.3 0.476299 159.784 6.12032e-06L157.909 1.57773C158.187 1.99449 158.524 2.3914 158.921 2.76846C159.338 3.14553 159.804 3.4829 160.32 3.78059C160.836 4.05842 161.412 4.28665 162.047 4.46526C162.702 4.62402 163.416 4.7034 164.19 4.7034C164.944 4.7034 165.639 4.62402 166.274 4.46526C166.929 4.28665 167.514 4.05842 168.03 3.78059C168.546 3.4829 169.003 3.14553 169.399 2.76846C169.816 2.3914 170.164 1.99449 170.441 1.57773ZM175.691 30.3042V23.6658H176.554C177.308 23.6658 177.844 23.4078 178.162 22.8919C178.499 22.3759 178.767 21.7408 178.965 20.9867L182.627 6.19182H195.844V23.4575H197.63V30.3042H193.671V27.0297H179.68V30.3042H175.691ZM182.21 23.4575H191.885V9.76402H185.693L182.627 22.2667C182.567 22.485 182.498 22.6934 182.418 22.8919C182.359 23.0903 182.289 23.2789 182.21 23.4575Z" fill="black"/>
<path d="M28.4482 16.5667L24.6553 30.7229H0.150391V30.7903H0.000976562L1.61328 24.7903H20.0332L21.6406 18.7903H3.22559L4.83789 12.7903H29.46L28.4482 16.5667ZM44.1816 4.56665L37.1729 30.7229H30.9609L37.374 6.79028H6.4502L8.06348 0.790283H45.1934L44.1816 4.56665Z" fill="#0028AA"/>
</svg>
