<?xml version="1.0" encoding="utf-8"?><svg viewBox="0 0 1275 704" xmlns="http://www.w3.org/2000/svg" xmlns:xlink="http://www.w3.org/1999/xlink"><style>:root>svg{display:none}:root>svg:target{display:block}</style><svg viewBox="0 0 576 383" id="about-mask" xmlns="http://www.w3.org/2000/svg"><mask id="aa" maskUnits="userSpaceOnUse" x="0" y="0" width="576" height="383"><path d="M473.386 382.155H0V0h576L473.386 382.155Z"/><path d="M473.386 382.155H0V0h576L473.386 382.155Z" fill-opacity=".03"/></mask><g mask="url(#aa)"><path d="M-351-151h927v695h-927z"/></g></svg><svg viewBox="0 0 50 50" id="arr-right" xmlns="http://www.w3.org/2000/svg"><path d="M14.865 5.406 34.459 25 14.865 44.595"/></svg><svg viewBox="0 0 64 48" id="car" xmlns="http://www.w3.org/2000/svg"><path d="M0 0h37.855l6.142 14.144h13.589l6.411 22.997H7.714L0 0Z"/><circle cx="22" cy="36.644" r="11"/><circle cx="22" cy="36.644" r="8.25"/><circle cx="48.284" cy="36.214" r="11"/><circle cx="48.283" cy="36.214" r="8.25"/><path d="M21.617 3.5h13.88l5.307 12.144H24.997L21.617 3.5Zm-17.62 0h14.31l3.19 12.144h-14.5l-3-12.144Z"/></svg><svg viewBox="0 0 53 48" id="card" xmlns="http://www.w3.org/2000/svg"><path d="M54 48H6.75l-4.5-32h47.813L54 48ZM34.875 34.75h8.438v-7.5h-8.438v7.5ZM43.13 10.5H1.477L0 0h41.227l1.903 10.5Z"/></svg><svg viewBox="0 0 54 48" id="case" xmlns="http://www.w3.org/2000/svg"><path d="M20 36h15v-7.5h16.188L48.374 48H0l2.813-19.5H20V36Zm10-5h-5v-7.5h5V31Zm6.563-22V5H21.937v4h14.625Zm15.345 14.5H35v-5H20v5H3.533L5.625 9h10.688V0h25.875v9H54l-2.092 14.5Z"/></svg><svg viewBox="0 0 58 48" id="check" xmlns="http://www.w3.org/2000/svg"><path d="M48.575 0 58 48H9.425L0 0h48.575ZM26.892 25.662l-6.337-5.517-4.328 3.767 10.665 9.286 15.424-13.43L37.99 16l-11.097 9.662Z"/></svg><svg viewBox="0 0 58 48" id="cond" xmlns="http://www.w3.org/2000/svg"><path d="M48.575 48H0L9.425 0H58l-9.425 48Zm-30.57-16.8V36h14.5v-4.8h-14.5Zm0-4.8h23.2v-4.8h-23.2v4.8Zm0-9.6h23.2V12h-23.2v4.8Z"/></svg><svg viewBox="0 0 31 31" id="cross" xmlns="http://www.w3.org/2000/svg"><path d="m1.414 1.414 28 28m0-28-28 28"/></svg><svg viewBox="0 0 576 383" id="cta-mask" xmlns="http://www.w3.org/2000/svg"><mask id="ia" maskUnits="userSpaceOnUse" x="0" y="0" width="576" height="383"><path d="M102.614 0H576v382.155H0L102.614 0Z"/><path d="M102.614 0H576v382.155H0L102.614 0Z" fill-opacity=".03"/></mask><g mask="url(#ia)"><path d="M836-189.155H-176v759H836z"/></g></svg><svg viewBox="0 0 48 48" id="flag" xmlns="http://www.w3.org/2000/svg"><path d="m26.5 0 3 5.5H48L44 40H26.5L24 34.75H6.742L5.5 48H0L4.5 0h22Z"/></svg><svg viewBox="0 0 502.664 502.664" xml:space="preserve" id="icon" xmlns="http://www.w3.org/2000/svg"><path d="M153.821 358.226 0 274.337v-46.463l153.821-83.414v54.574L46.636 250.523l107.185 53.431v54.272zm26.273 29.358L282.103 115.08h32.227L212.084 387.584h-31.99zm168.749-29.358v-54.272l107.164-52.999-107.164-52.59v-53.927l153.821 83.522v46.183l-153.821 84.083z"/></svg><svg viewBox="0 0 1275 704" id="img-mask" xmlns="http://www.w3.org/2000/svg"><mask id="la" maskUnits="userSpaceOnUse" x="0" y="-113" width="1822" height="1209"><path d="M324.5-113h1497l-327 1208.5H0L324.5-113Z"/><path d="M324.5-113h1497l-327 1208.5H0L324.5-113Z" fill-opacity=".03"/></mask><g mask="url(#la)"><path d="M-522-345h1797v1348H-522z"/></g></svg><svg viewBox="0 0 199 31" id="logo" xmlns="http://www.w3.org/2000/svg"><path d="M51.112 27.03V6.192h16.223v3.572H55.071v3.96h8.067c.953 0 1.826.178 2.62.535a6.58 6.58 0 0 1 2.054 1.429 6.073 6.073 0 0 1 1.37 2.114 6.75 6.75 0 0 1 .475 2.53 6.98 6.98 0 0 1-.476 2.56 6.387 6.387 0 0 1-1.37 2.143 6.345 6.345 0 0 1-2.053 1.459c-.794.357-1.667.536-2.62.536H51.112Zm11.43-3.483c.517 0 .973-.09 1.37-.268a3.114 3.114 0 0 0 1.012-.715c.298-.317.516-.664.655-1.041.159-.397.238-.794.238-1.191s-.08-.784-.238-1.161a2.731 2.731 0 0 0-.655-1.042 2.917 2.917 0 0 0-1.012-.744c-.397-.179-.853-.268-1.37-.268h-7.471v6.43h7.472Zm9.413 3.483V6.192H90.62V27.03h-3.989V9.764H75.915V27.03h-3.96Zm28.784 0V9.764h-7.532V6.192h19.052v3.572h-7.531V27.03h-3.989Zm25.68-7.353h-7.8v7.353h-3.959V6.192h11.759c.932 0 1.796.188 2.589.565a6.255 6.255 0 0 1 2.084 1.46 6.322 6.322 0 0 1 1.37 2.172 6.99 6.99 0 0 1 .476 2.56 6.99 6.99 0 0 1-.476 2.56 6.386 6.386 0 0 1-1.37 2.144 6.633 6.633 0 0 1-2.084 1.488 6.234 6.234 0 0 1-2.589.536Zm-.596-3.453c.496 0 .943-.09 1.34-.268a3.178 3.178 0 0 0 1.042-.774c.297-.318.516-.665.655-1.042a3.2 3.2 0 0 0 .238-1.19 3.2 3.2 0 0 0-.238-1.191 2.741 2.741 0 0 0-.655-1.042 2.855 2.855 0 0 0-1.042-.745 2.957 2.957 0 0 0-1.34-.297h-7.204v6.549h7.204Zm9.448 10.806V6.192h16.284v3.572H139.23v5.15h11.729v3.394H139.23v5.15h12.325v3.572h-16.284Zm19.274 0V6.192h3.959v14.795l11.312-14.795h3.989V27.03h-3.989V12.235L158.504 27.03h-3.959Zm15.896-25.452L168.566 0c-.516.476-1.151.873-1.905 1.19a6.304 6.304 0 0 1-2.471.477c-.913 0-1.746-.159-2.501-.476C160.935.873 160.3.476 159.784 0l-1.875 1.578c.278.416.615.813 1.012 1.19.417.378.883.715 1.399 1.013a8.471 8.471 0 0 0 1.727.684 9.087 9.087 0 0 0 2.143.238c.754 0 1.449-.079 2.084-.238a8.3 8.3 0 0 0 1.756-.684 7.17 7.17 0 0 0 1.369-1.013 6.365 6.365 0 0 0 1.042-1.19Zm5.25 28.726v-6.638h.863c.754 0 1.29-.258 1.608-.774.337-.516.605-1.151.803-1.905l3.662-14.795h13.217v17.265h1.786v6.847h-3.959V27.03H179.68v3.274h-3.989Zm6.519-6.846h9.675V9.763h-6.192l-3.066 12.503c-.06.218-.129.426-.209.625a4.732 4.732 0 0 1-.208.566ZM28.448 16.567l-3.793 14.156H.15v.067H.001l1.612-6h18.42l1.608-6H3.226l1.612-6H29.46l-1.012 3.777Zm15.734-12-7.01 26.156h-6.211L37.374 6.79H6.45l1.613-6h37.13l-1.011 3.777Z"/></svg><svg viewBox="0 0 144 140" id="placemark" xmlns="http://www.w3.org/2000/svg"><g filter="url(#na)"><path d="M98 37.333a6 6 0 0 1 6 6v38a6 6 0 0 1-6 6H77.385l-4.753 8.746a1.334 1.334 0 0 1-2.344 0l-4.753-8.746H46a6 6 0 0 1-6-6v-38a6 6 0 0 1 6-6h52Z"/><path d="m78.447 63.11-3.793 14.156H50.15v.067H50l1.612-6h18.42l1.608-6H53.225l1.612-6h24.622l-1.012 3.777Zm15.734-12-7.01 26.156H80.96l6.413-23.933H56.449l1.614-6h37.13L94.18 51.11Z"/></g><defs><filter id="na" x="0" y="0" width="144" height="140" filterUnits="userSpaceOnUse" color-interpolation-filters="sRGB"><feFlood flood-opacity="0" result="BackgroundImageFix"/><feColorMatrix in="SourceAlpha" values="0 0 0 0 0 0 0 0 0 0 0 0 0 0 0 0 0 0 127 0" result="hardAlpha"/><feOffset dy="2.667"/><feGaussianBlur stdDeviation="20"/><feComposite in2="hardAlpha" operator="out"/><feColorMatrix values="0 0 0 0 0 0 0 0 0 0 0 0 0 0 0 0 0 0 0.05 0"/><feBlend in2="BackgroundImageFix" result="effect1_dropShadow_251_1618"/><feBlend in="SourceGraphic" in2="effect1_dropShadow_251_1618" result="shape"/></filter></defs></svg><svg viewBox="0 0 33 28" id="tg" xmlns="http://www.w3.org/2000/svg"><path d="M2.224 11.946C12.378 7.427 25.519 1.917 27.333 1.155c4.758-1.996 6.218-1.614 5.49 2.806-.523 3.178-2.031 13.696-3.233 20.243-.714 3.883-2.314 4.343-4.831 2.663-1.21-.808-7.32-4.895-8.646-5.855-1.21-.874-2.88-1.926-.786-3.998.745-.738 5.629-5.455 9.433-9.127.499-.482-.127-1.274-.703-.887a4433.534 4433.534 0 0 0-13.143 8.837c-1.367.939-2.68 1.37-5.037.685-1.78-.518-3.52-1.135-4.197-1.37-2.607-.906-1.989-2.079.544-3.206Z"/></svg><svg viewBox="0 0 30 30" id="whatsapp" xmlns="http://www.w3.org/2000/svg"><path fill-rule="evenodd" clip-rule="evenodd" d="M23.732 21.182c-.362 1.023-1.799 1.87-2.945 2.117-.784.167-1.807.298-5.254-1.13-3.872-1.604-9.248-7.318-9.248-11.12 0-1.935 1.116-4.19 3.067-4.19.94 0 1.146.02 1.455.76.362.874 1.244 3.025 1.349 3.246.433.905-.441 1.434-1.075 2.222-.203.237-.432.493-.176.934.255.433 1.137 1.87 2.433 3.024 1.674 1.491 3.031 1.967 3.518 2.17.361.15.793.115 1.057-.167.334-.361.75-.961 1.173-1.553.299-.423.678-.476 1.076-.326.268.093 3.68 1.678 3.825 1.932.106.184.106 1.057-.255 2.08ZM15.003 0h-.008C6.726 0 0 6.728 0 15c0 3.28 1.058 6.323 2.856 8.791L.987 29.365l5.765-1.842A14.884 14.884 0 0 0 15.003 30C23.273 30 30 23.272 30 15S23.273 0 15.003 0Z"/></svg></svg>